<svg width="100%" height="100%" viewBox="0 0 400 400">
  <g transform="matrix(8 0 0 8 200 200)">
    <path style="stroke: none; stroke-width: 1; stroke-dasharray: none; stroke-linecap: butt; stroke-dashoffset: 0; stroke-linejoin: miter; stroke-miterlimit: 4; fill: rgba(27,31,59,0.4); fill-rule: evenodd; opacity: 1;"  transform=" translate(-14.5, -14)" d="M 7.72917 2 C 7.44152 2 7.20833 2.23359 7.20833 2.52174 V 5.13043 H 4.08333 C 2.93274 5.13043 2 6.0648 2 7.21739 V 23.913 C 2 25.0656 2.93274 26 4.08333 26 H 24.9167 C 26.0673 26 27 25.0656 27 23.913 V 7.21739 C 27 6.0648 26.0673 5.13043 24.9167 5.13043 H 21.7917 V 2.52174 C 21.7917 2.23359 21.5585 2 21.2708 2 H 20.2292 C 19.9415 2 19.7083 2.23359 19.7083 2.52174 V 5.13043 H 9.29167 V 2.52174 C 9.29167 2.23359 9.05848 2 8.77083 2 H 7.72917 Z M 19.7083 7.21739 L 9.29167 7.21739 V 8.26087 C 9.29167 8.54902 9.05848 8.78261 8.77083 8.78261 H 7.72917 C 7.44152 8.78261 7.20833 8.54902 7.20833 8.26087 V 7.21739 H 5.125 C 4.5497 7.21739 4.08333 7.68457 4.08333 8.26087 V 10.3478 H 24.9167 V 8.26087 C 24.9167 7.68457 24.4503 7.21739 23.875 7.21739 H 21.7917 V 8.26087 C 21.7917 8.54902 21.5585 8.78261 21.2708 8.78261 H 20.2292 C 19.9415 8.78261 19.7083 8.54902 19.7083 8.26087 V 7.21739 Z M 4.08333 12.4348 H 24.9167 V 22.8696 C 24.9167 23.4459 24.4503 23.913 23.875 23.913 H 5.125 C 4.5497 23.913 4.08333 23.4459 4.08333 22.8696 V 12.4348 Z" stroke-linecap="round" />
  </g>
</svg>
